# xmcd
#
# Track frame offsets: 
#        150
#        22217
#        50037
#        62395
#        120187
#
# Disc length: 1817 seconds
#
# Revision: 0
# Processed by: cddbd v1.5.2PL0 Copyright (c) Steve Scherf et al.
# Submitted via: ExactAudioCopyFreeDBPlugin 1.0
#
DISCID=3b071705
DTITLE=山崎まさよし - 心拍数 近畿編
DYEAR=2002
DGENRE=Pops
TTITLE0=心拍数 2001.10.21 なら100年会館
TTITLE1=Come on in my kitchen ～ ただ ただ… 2001.10.24 Zepp Osaka
TTITLE2=特選ＭＣ「姫路まして」 2001.10.17 姫路市文化センター 特選ＭＣ「メロンの気持ち」 2001.10.14 守山市民
TTITLE2=ホール
TTITLE3=ミスペラーズ・オン・ステージ 2001.10.20 和歌山県民文化会館大ホール
TTITLE4=rehearsal session - "Midou-street"
EXTD=
EXTT0=
EXTT1=
EXTT2=
EXTT3=
EXTT4=
PLAYORDER=
